<mxfile host="Electron" agent="Mozilla/5.0 (Windows NT 10.0; Win64; x64) AppleWebKit/537.36 (KHTML, like Gecko) draw.io/24.7.8 Chrome/128.0.6613.36 Electron/32.0.1 Safari/537.36" version="24.7.8">
  <diagram name="Page-1" id="OEuonv80rWqo3qI1wj2R">
    <mxGraphModel dx="943" dy="495" grid="0" gridSize="10" guides="1" tooltips="1" connect="1" arrows="1" fold="1" page="1" pageScale="1" pageWidth="850" pageHeight="1100" math="0" shadow="0">
      <root>
        <mxCell id="0" />
        <mxCell id="1" parent="0" />
        <mxCell id="suD_DrT4CpYWD1hLdEro-19" value="Assets" style="rounded=0;whiteSpace=wrap;html=1;sketch=1;jiggle=2;curveFitting=1;strokeColor=#6c8ebf;align=center;verticalAlign=bottom;fontFamily=Gloria Hallelujah;fontSource=https%3A%2F%2Ffonts.googleapis.com%2Fcss%3Ffamily%3DGloria%2BHallelujah;fontSize=16;labelBackgroundColor=default;fillColor=#dae8fc;" vertex="1" parent="1">
          <mxGeometry x="70" y="420" width="130" height="250" as="geometry" />
        </mxCell>
        <mxCell id="suD_DrT4CpYWD1hLdEro-1" value="Cortex&lt;div&gt;Cloud&lt;/div&gt;" style="ellipse;shape=cloud;whiteSpace=wrap;html=1;sketch=1;curveFitting=1;jiggle=2;fontFamily=Gloria Hallelujah;fontSource=https%3A%2F%2Ffonts.googleapis.com%2Fcss%3Ffamily%3DGloria%2BHallelujah;fontSize=16;" vertex="1" parent="1">
          <mxGeometry x="340" y="290" width="105" height="70" as="geometry" />
        </mxCell>
        <mxCell id="suD_DrT4CpYWD1hLdEro-15" style="edgeStyle=orthogonalEdgeStyle;shape=connector;rounded=0;orthogonalLoop=1;jettySize=auto;html=1;exitX=1;exitY=0.5;exitDx=0;exitDy=0;entryX=0;entryY=0.5;entryDx=0;entryDy=0;strokeColor=#FF0000;strokeWidth=2;align=center;verticalAlign=middle;fontFamily=Gloria Hallelujah;fontSource=https%3A%2F%2Ffonts.googleapis.com%2Fcss%3Ffamily%3DGloria%2BHallelujah;fontSize=16;fontColor=default;labelBackgroundColor=default;endArrow=classic;flowAnimation=1;" edge="1" parent="1" source="suD_DrT4CpYWD1hLdEro-2" target="suD_DrT4CpYWD1hLdEro-14">
          <mxGeometry relative="1" as="geometry" />
        </mxCell>
        <mxCell id="suD_DrT4CpYWD1hLdEro-51" style="edgeStyle=orthogonalEdgeStyle;shape=connector;rounded=0;orthogonalLoop=1;jettySize=auto;html=1;exitX=0.75;exitY=1;exitDx=0;exitDy=0;entryX=0.5;entryY=0;entryDx=0;entryDy=0;strokeColor=#00FFFF;strokeWidth=2;align=center;verticalAlign=middle;fontFamily=Gloria Hallelujah;fontSource=https%3A%2F%2Ffonts.googleapis.com%2Fcss%3Ffamily%3DGloria%2BHallelujah;fontSize=16;fontColor=default;labelBackgroundColor=default;endArrow=classic;flowAnimation=1;dashed=1;dashPattern=1 1;" edge="1" parent="1" source="suD_DrT4CpYWD1hLdEro-2" target="suD_DrT4CpYWD1hLdEro-50">
          <mxGeometry relative="1" as="geometry" />
        </mxCell>
        <mxCell id="suD_DrT4CpYWD1hLdEro-2" value="Case" style="rounded=1;whiteSpace=wrap;html=1;sketch=1;curveFitting=1;jiggle=2;fontFamily=Gloria Hallelujah;fontSource=https%3A%2F%2Ffonts.googleapis.com%2Fcss%3Ffamily%3DGloria%2BHallelujah;fontSize=16;" vertex="1" parent="1">
          <mxGeometry x="550" y="470" width="80" height="40" as="geometry" />
        </mxCell>
        <mxCell id="suD_DrT4CpYWD1hLdEro-4" style="edgeStyle=orthogonalEdgeStyle;rounded=0;orthogonalLoop=1;jettySize=auto;html=1;exitX=1;exitY=0.5;exitDx=0;exitDy=0;entryX=0;entryY=0.5;entryDx=0;entryDy=0;fontFamily=Gloria Hallelujah;fontSource=https%3A%2F%2Ffonts.googleapis.com%2Fcss%3Ffamily%3DGloria%2BHallelujah;fontSize=16;fontColor=default;strokeWidth=2;flowAnimation=1;strokeColor=#FF0000;" edge="1" parent="1" source="suD_DrT4CpYWD1hLdEro-3" target="suD_DrT4CpYWD1hLdEro-2">
          <mxGeometry relative="1" as="geometry" />
        </mxCell>
        <mxCell id="suD_DrT4CpYWD1hLdEro-3" value="Issues" style="rounded=1;whiteSpace=wrap;html=1;sketch=1;curveFitting=1;jiggle=2;fontFamily=Gloria Hallelujah;fontSource=https%3A%2F%2Ffonts.googleapis.com%2Fcss%3Ffamily%3DGloria%2BHallelujah;fontSize=16;fillColor=#f8cecc;strokeColor=#b85450;fontColor=#FF0000;labelBackgroundColor=#FFFF00;" vertex="1" parent="1">
          <mxGeometry x="440" y="470" width="80" height="40" as="geometry" />
        </mxCell>
        <mxCell id="suD_DrT4CpYWD1hLdEro-6" value="Code" style="rounded=1;whiteSpace=wrap;html=1;sketch=1;curveFitting=1;jiggle=2;fontFamily=Gloria Hallelujah;fontSource=https%3A%2F%2Ffonts.googleapis.com%2Fcss%3Ffamily%3DGloria%2BHallelujah;fontSize=16;" vertex="1" parent="1">
          <mxGeometry x="80" y="430" width="110" height="40" as="geometry" />
        </mxCell>
        <mxCell id="suD_DrT4CpYWD1hLdEro-7" value="Cloud" style="rounded=1;whiteSpace=wrap;html=1;sketch=1;curveFitting=1;jiggle=2;fontFamily=Gloria Hallelujah;fontSource=https%3A%2F%2Ffonts.googleapis.com%2Fcss%3Ffamily%3DGloria%2BHallelujah;fontSize=16;" vertex="1" parent="1">
          <mxGeometry x="80" y="600" width="110" height="40" as="geometry" />
        </mxCell>
        <mxCell id="suD_DrT4CpYWD1hLdEro-8" value="Workload" style="rounded=1;whiteSpace=wrap;html=1;sketch=1;curveFitting=1;jiggle=2;fontFamily=Gloria Hallelujah;fontSource=https%3A%2F%2Ffonts.googleapis.com%2Fcss%3Ffamily%3DGloria%2BHallelujah;fontSize=16;" vertex="1" parent="1">
          <mxGeometry x="80" y="480" width="110" height="110" as="geometry" />
        </mxCell>
        <mxCell id="suD_DrT4CpYWD1hLdEro-14" value="" style="shape=message;html=1;html=1;outlineConnect=0;labelPosition=center;verticalLabelPosition=bottom;align=center;verticalAlign=top;rounded=1;sketch=1;jiggle=2;curveFitting=1;strokeColor=default;fontFamily=Gloria Hallelujah;fontSource=https%3A%2F%2Ffonts.googleapis.com%2Fcss%3Ffamily%3DGloria%2BHallelujah;fontSize=16;fontColor=default;labelBackgroundColor=default;fillColor=default;" vertex="1" parent="1">
          <mxGeometry x="660" y="470" width="60" height="40" as="geometry" />
        </mxCell>
        <mxCell id="suD_DrT4CpYWD1hLdEro-17" style="edgeStyle=orthogonalEdgeStyle;shape=connector;rounded=0;orthogonalLoop=1;jettySize=auto;html=1;entryX=0.5;entryY=1;entryDx=0;entryDy=0;strokeColor=#FF00FF;strokeWidth=2;align=center;verticalAlign=middle;fontFamily=Gloria Hallelujah;fontSource=https%3A%2F%2Ffonts.googleapis.com%2Fcss%3Ffamily%3DGloria%2BHallelujah;fontSize=16;fontColor=default;labelBackgroundColor=default;endArrow=classic;dashed=1;dashPattern=1 4;flowAnimation=1;" edge="1" parent="1" source="suD_DrT4CpYWD1hLdEro-16" target="suD_DrT4CpYWD1hLdEro-2">
          <mxGeometry relative="1" as="geometry" />
        </mxCell>
        <mxCell id="suD_DrT4CpYWD1hLdEro-24" value="Escalate" style="edgeStyle=orthogonalEdgeStyle;shape=connector;rounded=0;orthogonalLoop=1;jettySize=auto;html=1;strokeColor=#FF00FF;strokeWidth=2;align=center;verticalAlign=middle;fontFamily=Gloria Hallelujah;fontSource=https%3A%2F%2Ffonts.googleapis.com%2Fcss%3Ffamily%3DGloria%2BHallelujah;fontSize=10;fontColor=default;labelBackgroundColor=default;endArrow=classic;dashed=1;dashPattern=1 4;flowAnimation=1;" edge="1" parent="1" source="suD_DrT4CpYWD1hLdEro-16" target="suD_DrT4CpYWD1hLdEro-3">
          <mxGeometry relative="1" as="geometry" />
        </mxCell>
        <mxCell id="suD_DrT4CpYWD1hLdEro-16" value="Insights" style="rounded=1;whiteSpace=wrap;html=1;sketch=1;curveFitting=1;jiggle=2;fontFamily=Gloria Hallelujah;fontSource=https%3A%2F%2Ffonts.googleapis.com%2Fcss%3Ffamily%3DGloria%2BHallelujah;fontSize=16;" vertex="1" parent="1">
          <mxGeometry x="440" y="590" width="80" height="40" as="geometry" />
        </mxCell>
        <mxCell id="suD_DrT4CpYWD1hLdEro-20" value="Artifacts" style="rounded=1;whiteSpace=wrap;html=1;sketch=1;jiggle=2;curveFitting=1;strokeColor=default;align=center;verticalAlign=middle;fontFamily=Gloria Hallelujah;fontSource=https%3A%2F%2Ffonts.googleapis.com%2Fcss%3Ffamily%3DGloria%2BHallelujah;fontSize=12;fontColor=default;labelBackgroundColor=default;fillColor=default;" vertex="1" parent="1">
          <mxGeometry x="100" y="560" width="70" height="20" as="geometry" />
        </mxCell>
        <mxCell id="suD_DrT4CpYWD1hLdEro-29" style="edgeStyle=orthogonalEdgeStyle;shape=connector;rounded=0;orthogonalLoop=1;jettySize=auto;html=1;strokeColor=#FF0000;strokeWidth=2;align=center;verticalAlign=middle;fontFamily=Gloria Hallelujah;fontSource=https%3A%2F%2Ffonts.googleapis.com%2Fcss%3Ffamily%3DGloria%2BHallelujah;fontSize=16;fontColor=default;labelBackgroundColor=default;endArrow=classic;flowAnimation=1;" edge="1" parent="1" source="suD_DrT4CpYWD1hLdEro-25" target="suD_DrT4CpYWD1hLdEro-3">
          <mxGeometry relative="1" as="geometry" />
        </mxCell>
        <mxCell id="suD_DrT4CpYWD1hLdEro-25" value="IOC Rules" style="rounded=1;whiteSpace=wrap;html=1;sketch=1;curveFitting=1;jiggle=2;fontFamily=Gloria Hallelujah;fontSource=https%3A%2F%2Ffonts.googleapis.com%2Fcss%3Ffamily%3DGloria%2BHallelujah;fontSize=16;" vertex="1" parent="1">
          <mxGeometry x="340" y="420" width="80" height="40" as="geometry" />
        </mxCell>
        <mxCell id="suD_DrT4CpYWD1hLdEro-30" style="edgeStyle=orthogonalEdgeStyle;shape=connector;rounded=0;orthogonalLoop=1;jettySize=auto;html=1;exitX=1;exitY=0.5;exitDx=0;exitDy=0;entryX=0.5;entryY=1;entryDx=0;entryDy=0;strokeColor=#FF00FF;strokeWidth=2;align=center;verticalAlign=middle;fontFamily=Gloria Hallelujah;fontSource=https%3A%2F%2Ffonts.googleapis.com%2Fcss%3Ffamily%3DGloria%2BHallelujah;fontSize=16;fontColor=default;labelBackgroundColor=default;endArrow=classic;dashed=1;dashPattern=1 4;flowAnimation=1;" edge="1" parent="1" source="suD_DrT4CpYWD1hLdEro-26" target="suD_DrT4CpYWD1hLdEro-16">
          <mxGeometry relative="1" as="geometry" />
        </mxCell>
        <mxCell id="suD_DrT4CpYWD1hLdEro-26" value="BIOC Rules" style="rounded=1;whiteSpace=wrap;html=1;sketch=1;curveFitting=1;jiggle=2;fontFamily=Gloria Hallelujah;fontSource=https%3A%2F%2Ffonts.googleapis.com%2Fcss%3Ffamily%3DGloria%2BHallelujah;fontSize=16;" vertex="1" parent="1">
          <mxGeometry x="340" y="630" width="80" height="40" as="geometry" />
        </mxCell>
        <mxCell id="suD_DrT4CpYWD1hLdEro-33" value="Yes" style="edgeStyle=orthogonalEdgeStyle;shape=connector;rounded=0;orthogonalLoop=1;jettySize=auto;html=1;entryX=0;entryY=0.5;entryDx=0;entryDy=0;strokeColor=#FF8000;strokeWidth=2;align=center;verticalAlign=middle;fontFamily=Gloria Hallelujah;fontSource=https%3A%2F%2Ffonts.googleapis.com%2Fcss%3Ffamily%3DGloria%2BHallelujah;fontSize=10;fontColor=default;labelBackgroundColor=default;endArrow=classic;flowAnimation=1;dashed=1;dashPattern=1 2;exitX=0.5;exitY=0;exitDx=0;exitDy=0;" edge="1" parent="1" source="suD_DrT4CpYWD1hLdEro-28" target="suD_DrT4CpYWD1hLdEro-3">
          <mxGeometry relative="1" as="geometry" />
        </mxCell>
        <mxCell id="suD_DrT4CpYWD1hLdEro-34" value="No" style="edgeStyle=orthogonalEdgeStyle;shape=connector;rounded=0;orthogonalLoop=1;jettySize=auto;html=1;exitX=0.5;exitY=1;exitDx=0;exitDy=0;strokeColor=#FFFF00;strokeWidth=2;align=center;verticalAlign=middle;fontFamily=Gloria Hallelujah;fontSource=https%3A%2F%2Ffonts.googleapis.com%2Fcss%3Ffamily%3DGloria%2BHallelujah;fontSize=10;fontColor=default;labelBackgroundColor=default;endArrow=classic;flowAnimation=1;dashed=1;dashPattern=1 2;entryX=0;entryY=0.5;entryDx=0;entryDy=0;" edge="1" parent="1" source="suD_DrT4CpYWD1hLdEro-28" target="suD_DrT4CpYWD1hLdEro-16">
          <mxGeometry relative="1" as="geometry">
            <mxPoint x="420" y="620" as="targetPoint" />
          </mxGeometry>
        </mxCell>
        <mxCell id="suD_DrT4CpYWD1hLdEro-28" value="Custom&lt;div style=&quot;font-size: 12px;&quot;&gt;Rules&lt;/div&gt;" style="rhombus;whiteSpace=wrap;html=1;rounded=1;sketch=1;jiggle=2;curveFitting=1;strokeColor=default;align=center;verticalAlign=middle;fontFamily=Gloria Hallelujah;fontSource=https%3A%2F%2Ffonts.googleapis.com%2Fcss%3Ffamily%3DGloria%2BHallelujah;fontSize=12;fontColor=default;labelBackgroundColor=default;fillColor=default;" vertex="1" parent="1">
          <mxGeometry x="340" y="510" width="80" height="75" as="geometry" />
        </mxCell>
        <mxCell id="suD_DrT4CpYWD1hLdEro-38" style="edgeStyle=orthogonalEdgeStyle;shape=connector;rounded=0;orthogonalLoop=1;jettySize=auto;html=1;exitX=1;exitY=0;exitDx=0;exitDy=27.5;exitPerimeter=0;entryX=0;entryY=0.5;entryDx=0;entryDy=0;strokeColor=#FF8000;strokeWidth=2;align=center;verticalAlign=middle;fontFamily=Gloria Hallelujah;fontSource=https%3A%2F%2Ffonts.googleapis.com%2Fcss%3Ffamily%3DGloria%2BHallelujah;fontSize=16;fontColor=default;labelBackgroundColor=default;endArrow=classic;flowAnimation=1;dashed=1;dashPattern=1 2;" edge="1" parent="1" source="suD_DrT4CpYWD1hLdEro-36" target="suD_DrT4CpYWD1hLdEro-25">
          <mxGeometry relative="1" as="geometry" />
        </mxCell>
        <mxCell id="suD_DrT4CpYWD1hLdEro-40" style="edgeStyle=orthogonalEdgeStyle;shape=connector;rounded=0;orthogonalLoop=1;jettySize=auto;html=1;exitX=1;exitY=0;exitDx=0;exitDy=52.5;exitPerimeter=0;entryX=0;entryY=0.5;entryDx=0;entryDy=0;strokeColor=#FFFF00;strokeWidth=2;align=center;verticalAlign=middle;fontFamily=Gloria Hallelujah;fontSource=https%3A%2F%2Ffonts.googleapis.com%2Fcss%3Ffamily%3DGloria%2BHallelujah;fontSize=16;fontColor=default;labelBackgroundColor=default;endArrow=classic;flowAnimation=1;dashed=1;dashPattern=1 2;" edge="1" parent="1" source="suD_DrT4CpYWD1hLdEro-36" target="suD_DrT4CpYWD1hLdEro-26">
          <mxGeometry relative="1" as="geometry" />
        </mxCell>
        <mxCell id="suD_DrT4CpYWD1hLdEro-36" value="Security&lt;div style=&quot;font-size: 10px;&quot;&gt;Data&lt;div style=&quot;font-size: 10px;&quot;&gt;Lake&lt;/div&gt;&lt;/div&gt;" style="shape=cylinder3;whiteSpace=wrap;html=1;boundedLbl=1;backgroundOutline=1;size=15;rounded=1;sketch=1;jiggle=2;curveFitting=1;align=center;verticalAlign=middle;fontFamily=Gloria Hallelujah;fontSource=https%3A%2F%2Ffonts.googleapis.com%2Fcss%3Ffamily%3DGloria%2BHallelujah;fontSize=10;labelBackgroundColor=default;" vertex="1" parent="1">
          <mxGeometry x="240" y="510" width="60" height="80" as="geometry" />
        </mxCell>
        <mxCell id="suD_DrT4CpYWD1hLdEro-39" style="edgeStyle=orthogonalEdgeStyle;shape=connector;rounded=0;orthogonalLoop=1;jettySize=auto;html=1;exitX=1;exitY=0.5;exitDx=0;exitDy=0;exitPerimeter=0;entryX=0.069;entryY=0.536;entryDx=0;entryDy=0;entryPerimeter=0;strokeColor=#FF8000;strokeWidth=2;align=center;verticalAlign=middle;fontFamily=Gloria Hallelujah;fontSource=https%3A%2F%2Ffonts.googleapis.com%2Fcss%3Ffamily%3DGloria%2BHallelujah;fontSize=16;fontColor=default;labelBackgroundColor=default;endArrow=classic;flowAnimation=1;dashed=1;dashPattern=1 2;" edge="1" parent="1" source="suD_DrT4CpYWD1hLdEro-36" target="suD_DrT4CpYWD1hLdEro-28">
          <mxGeometry relative="1" as="geometry" />
        </mxCell>
        <mxCell id="suD_DrT4CpYWD1hLdEro-41" style="edgeStyle=orthogonalEdgeStyle;shape=connector;rounded=0;orthogonalLoop=1;jettySize=auto;html=1;exitX=1;exitY=0.5;exitDx=0;exitDy=0;entryX=0;entryY=0;entryDx=0;entryDy=27.5;entryPerimeter=0;strokeColor=default;strokeWidth=2;align=center;verticalAlign=middle;fontFamily=Gloria Hallelujah;fontSource=https%3A%2F%2Ffonts.googleapis.com%2Fcss%3Ffamily%3DGloria%2BHallelujah;fontSize=16;fontColor=default;labelBackgroundColor=default;endArrow=classic;flowAnimation=1;dashed=1;dashPattern=1 1;" edge="1" parent="1" source="suD_DrT4CpYWD1hLdEro-6" target="suD_DrT4CpYWD1hLdEro-36">
          <mxGeometry relative="1" as="geometry">
            <Array as="points">
              <mxPoint x="220" y="450" />
              <mxPoint x="220" y="537" />
            </Array>
          </mxGeometry>
        </mxCell>
        <mxCell id="suD_DrT4CpYWD1hLdEro-42" style="edgeStyle=orthogonalEdgeStyle;shape=connector;rounded=0;orthogonalLoop=1;jettySize=auto;html=1;exitX=1;exitY=0.5;exitDx=0;exitDy=0;entryX=0;entryY=0.5;entryDx=0;entryDy=0;entryPerimeter=0;strokeColor=default;strokeWidth=2;align=center;verticalAlign=middle;fontFamily=Gloria Hallelujah;fontSource=https%3A%2F%2Ffonts.googleapis.com%2Fcss%3Ffamily%3DGloria%2BHallelujah;fontSize=16;fontColor=default;labelBackgroundColor=default;endArrow=classic;flowAnimation=1;dashed=1;dashPattern=1 1;" edge="1" parent="1" source="suD_DrT4CpYWD1hLdEro-8" target="suD_DrT4CpYWD1hLdEro-36">
          <mxGeometry relative="1" as="geometry" />
        </mxCell>
        <mxCell id="suD_DrT4CpYWD1hLdEro-43" style="edgeStyle=orthogonalEdgeStyle;shape=connector;rounded=0;orthogonalLoop=1;jettySize=auto;html=1;exitX=1;exitY=0.5;exitDx=0;exitDy=0;entryX=0;entryY=0;entryDx=0;entryDy=52.5;entryPerimeter=0;strokeColor=default;strokeWidth=2;align=center;verticalAlign=middle;fontFamily=Gloria Hallelujah;fontSource=https%3A%2F%2Ffonts.googleapis.com%2Fcss%3Ffamily%3DGloria%2BHallelujah;fontSize=16;fontColor=default;labelBackgroundColor=default;endArrow=classic;flowAnimation=1;dashed=1;dashPattern=1 1;" edge="1" parent="1" source="suD_DrT4CpYWD1hLdEro-20" target="suD_DrT4CpYWD1hLdEro-36">
          <mxGeometry relative="1" as="geometry" />
        </mxCell>
        <mxCell id="suD_DrT4CpYWD1hLdEro-44" style="edgeStyle=orthogonalEdgeStyle;shape=connector;rounded=0;orthogonalLoop=1;jettySize=auto;html=1;exitX=1;exitY=0.5;exitDx=0;exitDy=0;entryX=0;entryY=1;entryDx=0;entryDy=-15;entryPerimeter=0;strokeColor=default;strokeWidth=2;align=center;verticalAlign=middle;fontFamily=Gloria Hallelujah;fontSource=https%3A%2F%2Ffonts.googleapis.com%2Fcss%3Ffamily%3DGloria%2BHallelujah;fontSize=16;fontColor=default;labelBackgroundColor=default;endArrow=classic;flowAnimation=1;dashed=1;dashPattern=1 1;" edge="1" parent="1" source="suD_DrT4CpYWD1hLdEro-7" target="suD_DrT4CpYWD1hLdEro-36">
          <mxGeometry relative="1" as="geometry" />
        </mxCell>
        <mxCell id="suD_DrT4CpYWD1hLdEro-45" value="" style="shape=curlyBracket;whiteSpace=wrap;html=1;rounded=1;labelPosition=left;verticalLabelPosition=middle;align=right;verticalAlign=middle;strokeColor=default;fontFamily=Gloria Hallelujah;fontSource=https%3A%2F%2Ffonts.googleapis.com%2Fcss%3Ffamily%3DGloria%2BHallelujah;fontSize=16;fontColor=default;labelBackgroundColor=default;fillColor=default;rotation=90;strokeWidth=2;" vertex="1" parent="1">
          <mxGeometry x="385" y="45" width="20" height="660" as="geometry" />
        </mxCell>
        <mxCell id="suD_DrT4CpYWD1hLdEro-46" value="Timeline" style="rounded=1;whiteSpace=wrap;html=1;sketch=1;curveFitting=1;jiggle=2;fontFamily=Gloria Hallelujah;fontSource=https%3A%2F%2Ffonts.googleapis.com%2Fcss%3Ffamily%3DGloria%2BHallelujah;fontSize=16;" vertex="1" parent="1">
          <mxGeometry x="235" y="630" width="70" height="30" as="geometry" />
        </mxCell>
        <mxCell id="suD_DrT4CpYWD1hLdEro-47" style="edgeStyle=orthogonalEdgeStyle;shape=connector;rounded=0;orthogonalLoop=1;jettySize=auto;html=1;exitX=0.5;exitY=0;exitDx=0;exitDy=0;entryX=0.5;entryY=1;entryDx=0;entryDy=0;entryPerimeter=0;dashed=1;dashPattern=1 1;strokeColor=default;strokeWidth=2;align=center;verticalAlign=middle;fontFamily=Gloria Hallelujah;fontSource=https%3A%2F%2Ffonts.googleapis.com%2Fcss%3Ffamily%3DGloria%2BHallelujah;fontSize=16;fontColor=default;labelBackgroundColor=default;endArrow=classic;flowAnimation=1;" edge="1" parent="1" source="suD_DrT4CpYWD1hLdEro-46" target="suD_DrT4CpYWD1hLdEro-36">
          <mxGeometry relative="1" as="geometry" />
        </mxCell>
        <mxCell id="suD_DrT4CpYWD1hLdEro-50" value="mitre att&amp;amp;ck techniques and tactics" style="rounded=0;whiteSpace=wrap;html=1;sketch=1;jiggle=2;curveFitting=1;strokeColor=default;align=center;verticalAlign=middle;fontFamily=Gloria Hallelujah;fontSource=https%3A%2F%2Ffonts.googleapis.com%2Fcss%3Ffamily%3DGloria%2BHallelujah;fontSize=12;fontColor=default;labelBackgroundColor=default;fillColor=default;" vertex="1" parent="1">
          <mxGeometry x="560" y="620" width="100" height="50" as="geometry" />
        </mxCell>
        <mxCell id="suD_DrT4CpYWD1hLdEro-52" value="Data Sourcing" style="shape=step;perimeter=stepPerimeter;whiteSpace=wrap;html=1;fixedSize=1;rounded=1;strokeColor=default;align=center;verticalAlign=middle;fontFamily=Gloria Hallelujah;fontSource=https%3A%2F%2Ffonts.googleapis.com%2Fcss%3Ffamily%3DGloria%2BHallelujah;fontSize=16;fontColor=default;labelBackgroundColor=default;fillColor=default;arcSize=16;size=30;" vertex="1" parent="1">
          <mxGeometry x="50" y="705" width="180" height="40" as="geometry" />
        </mxCell>
        <mxCell id="suD_DrT4CpYWD1hLdEro-53" value="Treat Management" style="shape=step;perimeter=stepPerimeter;whiteSpace=wrap;html=1;fixedSize=1;rounded=1;strokeColor=default;align=center;verticalAlign=middle;fontFamily=Gloria Hallelujah;fontSource=https%3A%2F%2Ffonts.googleapis.com%2Fcss%3Ffamily%3DGloria%2BHallelujah;fontSize=16;fontColor=default;labelBackgroundColor=default;fillColor=default;arcSize=16;size=30;" vertex="1" parent="1">
          <mxGeometry x="210" y="705" width="230" height="40" as="geometry" />
        </mxCell>
        <mxCell id="suD_DrT4CpYWD1hLdEro-54" value="Investigation&amp;nbsp;&lt;div&gt;&amp;amp; Response&lt;/div&gt;" style="shape=step;perimeter=stepPerimeter;whiteSpace=wrap;html=1;fixedSize=1;rounded=1;strokeColor=default;align=center;verticalAlign=middle;fontFamily=Gloria Hallelujah;fontSource=https%3A%2F%2Ffonts.googleapis.com%2Fcss%3Ffamily%3DGloria%2BHallelujah;fontSize=16;fontColor=default;labelBackgroundColor=default;fillColor=default;arcSize=16;size=30;" vertex="1" parent="1">
          <mxGeometry x="550" y="705" width="190" height="40" as="geometry" />
        </mxCell>
        <mxCell id="suD_DrT4CpYWD1hLdEro-55" value="Detection" style="shape=step;perimeter=stepPerimeter;whiteSpace=wrap;html=1;fixedSize=1;rounded=1;strokeColor=default;align=center;verticalAlign=middle;fontFamily=Gloria Hallelujah;fontSource=https%3A%2F%2Ffonts.googleapis.com%2Fcss%3Ffamily%3DGloria%2BHallelujah;fontSize=16;fontColor=default;labelBackgroundColor=default;fillColor=default;arcSize=16;size=30;" vertex="1" parent="1">
          <mxGeometry x="420" y="705" width="150" height="40" as="geometry" />
        </mxCell>
        <mxCell id="suD_DrT4CpYWD1hLdEro-56" value="VM" style="rounded=1;whiteSpace=wrap;html=1;sketch=1;jiggle=2;curveFitting=1;strokeColor=default;align=center;verticalAlign=middle;fontFamily=Gloria Hallelujah;fontSource=https%3A%2F%2Ffonts.googleapis.com%2Fcss%3Ffamily%3DGloria%2BHallelujah;fontSize=16;fontColor=default;labelBackgroundColor=default;fillColor=default;" vertex="1" parent="1">
          <mxGeometry x="93" y="493" width="34" height="24" as="geometry" />
        </mxCell>
        <mxCell id="suD_DrT4CpYWD1hLdEro-57" value="k8s" style="rounded=1;whiteSpace=wrap;html=1;sketch=1;jiggle=2;curveFitting=1;strokeColor=default;align=center;verticalAlign=middle;fontFamily=Gloria Hallelujah;fontSource=https%3A%2F%2Ffonts.googleapis.com%2Fcss%3Ffamily%3DGloria%2BHallelujah;fontSize=16;fontColor=default;labelBackgroundColor=default;fillColor=default;" vertex="1" parent="1">
          <mxGeometry x="145" y="493" width="34" height="24" as="geometry" />
        </mxCell>
        <mxCell id="suD_DrT4CpYWD1hLdEro-58" value="" style="shape=image;verticalLabelPosition=bottom;labelBackgroundColor=default;verticalAlign=top;aspect=fixed;imageAspect=0;image=https://upload.wikimedia.org/wikipedia/commons/thumb/3/39/Kubernetes_logo_without_workmark.svg/1055px-Kubernetes_logo_without_workmark.svg.png;" vertex="1" parent="1">
          <mxGeometry x="170" y="475" width="26.03" height="25.29" as="geometry" />
        </mxCell>
        <mxCell id="suD_DrT4CpYWD1hLdEro-59" value="" style="shape=image;verticalLabelPosition=bottom;labelBackgroundColor=default;verticalAlign=top;aspect=fixed;imageAspect=0;image=https://upload.wikimedia.org/wikipedia/commons/thumb/3/35/Tux.svg/1727px-Tux.svg.png;" vertex="1" parent="1">
          <mxGeometry x="80" y="473.37" width="22.7" height="26.92" as="geometry" />
        </mxCell>
        <mxCell id="suD_DrT4CpYWD1hLdEro-63" value="" style="shape=image;imageAspect=0;aspect=fixed;verticalLabelPosition=bottom;verticalAlign=top;rounded=1;sketch=1;jiggle=2;curveFitting=1;strokeColor=default;align=center;fontFamily=Gloria Hallelujah;fontSource=https%3A%2F%2Ffonts.googleapis.com%2Fcss%3Ffamily%3DGloria%2BHallelujah;fontSize=16;fontColor=default;labelBackgroundColor=default;fillColor=default;image=https://img.icons8.com/?size=512&amp;id=52539&amp;format=png;" vertex="1" parent="1">
          <mxGeometry x="157" y="434.5" width="31" height="31" as="geometry" />
        </mxCell>
        <mxCell id="suD_DrT4CpYWD1hLdEro-64" value="" style="shape=image;verticalLabelPosition=bottom;labelBackgroundColor=default;verticalAlign=top;aspect=fixed;imageAspect=0;image=https://img.icons8.com/m_sharp/512/FFFFFF/amazon-web-services.png;" vertex="1" parent="1">
          <mxGeometry x="165" y="609.5" width="21" height="21" as="geometry" />
        </mxCell>
        <mxCell id="suD_DrT4CpYWD1hLdEro-66" value="" style="shape=image;imageAspect=0;aspect=fixed;verticalLabelPosition=bottom;verticalAlign=top;rounded=1;sketch=1;jiggle=2;curveFitting=1;strokeColor=default;align=center;fontFamily=Gloria Hallelujah;fontSource=https%3A%2F%2Ffonts.googleapis.com%2Fcss%3Ffamily%3DGloria%2BHallelujah;fontSize=16;fontColor=default;labelBackgroundColor=default;fillColor=default;image=https://play-lh.googleusercontent.com/bQJATxUvTXdAyz74KfYkYIjvpsQEuBpbWYSN0Td4OpIPOzWyq9STSpR1CrF4x_wsV2E;imageBackground=none;imageBorder=default;" vertex="1" parent="1">
          <mxGeometry x="428" y="327" width="33" height="33" as="geometry" />
        </mxCell>
      </root>
    </mxGraphModel>
  </diagram>
</mxfile>
